<svg width="170" height="39" viewBox="0 0 170 39" fill="none" xmlns="http://www.w3.org/2000/svg">
<path d="M52.1 0H57.5C58.1 0 58.6 0.199998 59 0.599998C59.4 0.999998 59.6 1.4 59.6 1.9V5.8C59.6 6.2 59.5 6.5 59.3 6.8C59.1 7.1 58.8 7.3 58.5 7.5C58.8 7.7 59.1 7.9 59.3 8.2C59.5 8.5 59.6 8.8 59.6 9.2V13.6C59.6 14.1 59.4 14.6 59 14.9C58.6 15.3 58.1 15.5 57.5 15.5H52.1V0ZM54.8 2.1V6.4H56.4C56.5 6.4 56.6 6.4 56.7 6.3C56.8 6.2 56.9 6.1 56.9 6V2.7C56.9 2.6 56.8 2.5 56.7 2.4C56.6 2.3 56.5 2.3 56.3 2.3H54.8V2.1ZM54.8 8.6V13.4H56.4C56.5 13.4 56.7 13.4 56.8 13.3C56.9 13.2 57 13.1 57 13V9.2C57 9.1 56.9 9 56.8 8.9C56.7 8.8 56.6 8.8 56.5 8.8H54.8V8.6Z" fill="white"/>
<path d="M64.3999 0H67.0999L70.2 15.5H67.4999L66.9999 12.6H64.3999L63.8999 15.5H61.2L64.3999 0ZM65.7999 4.3L64.8999 10.6H66.7999L65.7999 4.3Z" fill="white"/>
<path d="M72.1 0H74.8V13.4H78.4V15.5H72.1V0Z" fill="white"/>
<path d="M78.1 0H85.6V2.1H83.2V15.5H80.5V2.1H78.1V0Z" fill="white"/>
<path d="M87.5 0H90.2V15.5H87.5V0Z" fill="white"/>
<path d="M94.2999 0H97.5C98.1 0 98.6 0.199998 99 0.599998C99.4 0.999998 99.5999 1.4 99.5999 1.9V4.7H96.8999V2.6C96.8999 2.5 96.8 2.4 96.7 2.3C96.6 2.2 96.4999 2.2 96.2999 2.2H95.2C95.1 2.2 94.8999 2.2 94.7999 2.3C94.6999 2.4 94.5999 2.5 94.5999 2.6V12.9C94.5999 13 94.6999 13.1 94.7999 13.2C94.8999 13.3 95 13.3 95.2 13.3H96.2999C96.3999 13.3 96.6 13.3 96.7 13.2C96.8 13.1 96.8999 13 96.8999 12.9V10.8H99.5999V13.6C99.5999 14.1 99.4 14.6 99 14.9C98.6 15.3 98.1 15.5 97.5 15.5H94.2999C93.6999 15.5 93.1999 15.3 92.7999 14.9C92.3999 14.5 92.2 14.1 92.2 13.6V1.9C92.2 1.4 92.3999 0.899998 92.7999 0.599998C93.1999 0.299998 93.6999 0 94.2999 0Z" fill="white"/>
<path d="M107.9 0H115.4V2.1H113V15.5H110.3V2.1H107.9V0Z" fill="white"/>
<path d="M117.3 0H122.7C123.3 0 123.8 0.199998 124.2 0.599998C124.6 0.999998 124.8 1.4 124.8 1.9V8C124.8 8.4 124.6 8.8 124.3 9.2C124 9.6 123.6 9.8 123.1 9.9L125.1 15.6H122.4L120.4 10H119.9V15.6H117.2V0H117.3ZM120 2.1V7.7H121.6C121.7 7.7 121.9 7.7 122 7.6C122.1 7.5 122.2 7.4 122.2 7.3V2.6C122.2 2.5 122.1 2.4 122 2.3C121.9 2.2 121.8 2.2 121.6 2.2H120V2.1Z" fill="white"/>
<path d="M130.2 0H132.9L136 15.5H133.3L132.8 12.6H130.2L129.7 15.5H127L130.2 0ZM131.6 4.3L130.7 10.6H132.6L131.6 4.3Z" fill="white"/>
<path d="M137.7 0H143.1C143.7 0 144.2 0.199998 144.6 0.599998C145 0.999998 145.2 1.4 145.2 1.9V13.6C145.2 14.1 145 14.6 144.6 14.9C144.2 15.3 143.7 15.5 143.1 15.5H137.7V0ZM140.4 2.1V13.3H142C142.1 13.3 142.3 13.3 142.4 13.2C142.5 13.1 142.6 13 142.6 12.9V2.6C142.6 2.5 142.5 2.4 142.4 2.3C142.3 2.2 142.2 2.2 142 2.2H140.4V2.1Z" fill="white"/>
<path d="M147.3 0H150V15.5H147.3V0Z" fill="white"/>
<path d="M152.1 0H154.9L156.9 8V0H159.6V15.5H156.8L154.8 7.5V15.5H152.1V0Z" fill="white"/>
<path d="M163.8 0H167C167.6 0 168.1 0.199998 168.5 0.599998C168.9 0.999998 169.1 1.4 169.1 1.9V4.7H166.4V2.6C166.4 2.5 166.3 2.4 166.2 2.3C166.1 2.2 166 2.2 165.8 2.2H164.9C164.8 2.2 164.6 2.2 164.5 2.3C164.4 2.4 164.3 2.5 164.3 2.6V12.9C164.3 13 164.4 13.1 164.5 13.2C164.6 13.3 164.7 13.3 164.9 13.3H166C166.1 13.3 166.3 13.3 166.4 13.2C166.5 13.1 166.6 13 166.6 12.9V8.8H165.5V6.7H169.3V13.6C169.3 14.1 169.1 14.6 168.7 14.9C168.3 15.3 167.8 15.5 167.2 15.5H164C163.4 15.5 162.9 15.3 162.5 14.9C162.1 14.5 161.9 14.1 161.9 13.6V1.9C161.9 1.4 162.1 0.899998 162.5 0.599998C162.9 0.299998 163.2 0 163.8 0Z" fill="white"/>
<path d="M54.6 23H57.2C57.8 23 58.2 23.2 58.6 23.5C59 23.9 59.2 24.3 59.2 24.8V27.1H57.5V25.3C57.5 25.1 57.4 24.9 57.2 24.7C57 24.5 56.8 24.4 56.5 24.4H55.3C55 24.4 54.8 24.5 54.6 24.7C54.4 24.9 54.3 25.1 54.3 25.3V36.3C54.3 36.5 54.4 36.7 54.6 36.9C54.8 37.1 55 37.2 55.3 37.2H56.5C56.8 37.2 57 37.1 57.2 36.9C57.4 36.7 57.5 36.5 57.5 36.3V34.5H59.2V36.8C59.2 37.3 59 37.7 58.6 38.1C58.2 38.5 57.7 38.6 57.2 38.6H54.6C54 38.6 53.6 38.4 53.2 38.1C52.8 37.8 52.6 37.3 52.6 36.8V24.8C52.6 24.3 52.8 23.9 53.2 23.5C53.6 23.1 54.1 23 54.6 23Z" fill="white"/>
<path d="M65.9 23H68.5C69.1 23 69.5 23.2 69.9 23.5C70.3 23.9 70.5 24.3 70.5 24.8V36.7C70.5 37.2 70.3 37.6 69.9 38C69.5 38.4 69 38.5 68.5 38.5H65.9C65.3 38.5 64.9 38.3 64.5 38C64.1 37.7 63.9 37.2 63.9 36.7V24.8C63.9 24.3 64.1 23.9 64.5 23.5C64.9 23.1 65.3 23 65.9 23ZM66.6 24.3C66.3 24.3 66.1 24.4 65.9 24.6C65.7 24.8 65.6 25 65.6 25.2V36.2C65.6 36.4 65.7 36.6 65.9 36.8C66.1 37 66.3 37.1 66.6 37.1H67.8C68.1 37.1 68.3 37 68.5 36.8C68.7 36.6 68.8 36.4 68.8 36.2V25.2C68.8 25 68.7 24.8 68.5 24.6C68.3 24.4 68.1 24.3 67.8 24.3H66.6Z" fill="white"/>
<path d="M75.5 23H80.1C80.7 23 81.1 23.2 81.5 23.5C81.9 23.9 82.1 24.3 82.1 24.8V30.4C82.1 30.8 81.9 31.2 81.6 31.6C81.3 31.9 80.9 32.1 80.4 32.2L82.5 38.5H80.8L78.7 32.2H77.2V38.5H75.5V23ZM77.2 24.3V30.8H79.4C79.7 30.8 79.9 30.7 80.1 30.5C80.3 30.3 80.4 30.1 80.4 29.9V25.2C80.4 25 80.3 24.8 80.1 24.6C79.9 24.4 79.7 24.3 79.4 24.3H77.2Z" fill="white"/>
<path d="M87.3 23H91.9C92.5 23 92.9 23.2 93.3 23.5C93.7 23.9 93.9 24.3 93.9 24.8V30.4C93.9 30.9 93.7 31.3 93.3 31.7C92.9 32.1 92.4 32.2 91.9 32.2H89V38.5H87.3V23ZM89 24.3V30.8H91.2C91.5 30.8 91.7 30.7 91.9 30.5C92.1 30.3 92.2 30.1 92.2 29.9V25.2C92.2 25 92.1 24.8 91.9 24.6C91.7 24.4 91.5 24.3 91.2 24.3H89Z" fill="white"/>
<path d="M100.8 23H103.4C104 23 104.4 23.2 104.8 23.5C105.2 23.9 105.4 24.3 105.4 24.8V36.7C105.4 37.2 105.2 37.6 104.8 38C104.4 38.4 103.9 38.5 103.4 38.5H100.8C100.2 38.5 99.8 38.3 99.4 38C99 37.7 98.8 37.2 98.8 36.7V24.8C98.8 24.3 99 23.9 99.4 23.5C99.8 23.1 100.3 23 100.8 23ZM101.5 24.3C101.2 24.3 101 24.4 100.8 24.6C100.6 24.8 100.5 25 100.5 25.2V36.2C100.5 36.4 100.6 36.6 100.8 36.8C101 37 101.2 37.1 101.5 37.1H102.7C103 37.1 103.2 37 103.4 36.8C103.6 36.6 103.7 36.4 103.7 36.2V25.2C103.7 25 103.6 24.8 103.4 24.6C103.2 24.4 103 24.3 102.7 24.3H101.5Z" fill="white"/>
<path d="M110.5 23H115.1C115.7 23 116.1 23.2 116.5 23.5C116.9 23.9 117.1 24.3 117.1 24.8V30.4C117.1 30.8 116.9 31.2 116.6 31.6C116.3 31.9 115.9 32.1 115.4 32.2L117.5 38.5H115.8L113.7 32.2H112.2V38.5H110.5V23ZM112.2 24.3V30.8H114.4C114.7 30.8 114.9 30.7 115.1 30.5C115.3 30.3 115.4 30.1 115.4 29.9V25.2C115.4 25 115.3 24.8 115.1 24.6C114.9 24.4 114.7 24.3 114.4 24.3H112.2Z" fill="white"/>
<path d="M125.2 23H126.9L129.9 38.5H128.2L127.6 34.9H124.5L123.9 38.5H122.2L125.2 23ZM126.1 25.8L124.8 33.6H127.4L126.1 25.8Z" fill="white"/>
<path d="M133.2 23H139.9V24.4H137.4V38.6H135.7V24.3H133.2V23Z" fill="white"/>
<path d="M144.8 23H146.5V38.5H144.8V23Z" fill="white"/>
<path d="M153.5 23H156.1C156.7 23 157.1 23.2 157.5 23.5C157.9 23.9 158.1 24.3 158.1 24.8V36.7C158.1 37.2 157.9 37.6 157.5 38C157.1 38.4 156.6 38.5 156.1 38.5H153.5C152.9 38.5 152.5 38.3 152.1 38C151.7 37.7 151.5 37.2 151.5 36.7V24.8C151.5 24.3 151.7 23.9 152.1 23.5C152.5 23.1 153 23 153.5 23ZM154.2 24.3C153.9 24.3 153.7 24.4 153.5 24.6C153.3 24.8 153.2 25 153.2 25.2V36.2C153.2 36.4 153.3 36.6 153.5 36.8C153.7 37 153.9 37.1 154.2 37.1H155.4C155.7 37.1 155.9 37 156.1 36.8C156.3 36.6 156.4 36.4 156.4 36.2V25.2C156.4 25 156.3 24.8 156.1 24.6C155.9 24.4 155.7 24.3 155.4 24.3H154.2Z" fill="white"/>
<path d="M163.2 23H165L168.1 33.7V23H169.8V38.5H168L164.9 27.8V38.5H163.2V23Z" fill="white"/>
<path d="M38.2 0.0999756H0V38.3H38.2V0.0999756Z" fill="#9198B8"/>
<mask id="mask0_1_959" style="mask-type:luminance" maskUnits="userSpaceOnUse" x="0" y="0" width="39" height="39">
<path d="M38.2 0.0999756H0V38.3H38.2V0.0999756Z" fill="white"/>
</mask>
<g mask="url(#mask0_1_959)">
<path d="M46.5 19.1999C46.5 19.2999 46.4 19.3999 46.3 19.3999C32.7 19.3999 25.9 19.3999 22.5 21.3999C23.4 23.0999 24.4 24.0999 27.3 27.0999C27.4 27.1999 27.4 27.2999 27.3 27.3999C27.2 27.4999 27.1 27.4999 27 27.3999C23.8 24.2999 22.7 23.3999 21.1 22.4999C19.3 24.5999 19.3 28.2999 19.2 34.3999C19.2 34.4999 19.1 34.5999 19 34.5999C18.9 34.5999 18.8 34.4999 18.8 34.3999C18.8 28.2999 18.7 24.6999 16.9 22.4999C15.6 23.1999 15 23.7999 13.3 25.4999C12.8 25.9999 12.2 26.5999 11.5 27.3999C11.4 27.4999 11.3 27.4999 11.2 27.3999C11.1 27.2999 11.1 27.1999 11.2 27.0999C14 23.9999 14.6 23.0999 15.6 21.3999C12.3 19.3999 5.39998 19.3999 -8.20002 19.3999C-8.30002 19.3999 -8.40002 19.2999 -8.40002 19.1999C-8.40002 19.0999 -8.30002 18.9999 -8.20002 18.9999C5.39998 18.9999 12.2 18.9999 15.6 16.9999C14.7 15.3999 14 14.5999 11 11.4999C10.9 11.3999 10.9 11.2999 11 11.1999C11.1 11.0999 11.2 11.0999 11.3 11.1999C14.5 14.2999 15.3 14.9999 16.9 15.8999C18.7 13.7999 18.7 10.0999 18.8 3.99993C18.8 3.89993 18.9 3.79993 19 3.79993C19.1 3.79993 19.2 3.89993 19.2 3.99993C19.2 10.0999 19.3 13.6999 21.1 15.8999C22.8 14.9999 23.8 14.0999 26.9 11.0999C27 10.9999 27.1 10.9999 27.2 11.0999C27.3 11.1999 27.3 11.2999 27.2 11.3999L26.9 11.7999C24.2 14.4999 23.4 15.3999 22.5 16.8999C25.8 18.8999 32.7 18.8999 46.3 18.8999C46.4 18.9999 46.5 19.0999 46.5 19.1999Z" fill="#052847"/>
</g>
</svg>
