<svg width="15" height="15" viewBox="0 0 15 15" fill="none" xmlns="http://www.w3.org/2000/svg">
<path d="M4.03125 0.75C4.40625 0.75 5.90625 4.125 5.90625 4.5C5.90625 5.25 4.78125 6 4.40625 6.75C4.03125 7.5 4.78125 8.25 5.53125 9C5.82375 9.2925 7.03125 10.5 7.78125 10.125C8.53125 9.75 9.28125 8.625 10.0312 8.625C10.4062 8.625 13.7812 10.125 13.7812 10.5C13.7812 12 12.6562 13.125 11.5312 13.5C10.4062 13.875 9.65625 13.875 8.15625 13.5C6.65625 13.125 5.53125 12.75 3.65625 10.875C1.78125 9 1.40625 7.875 1.03125 6.375C0.65625 4.875 0.65625 4.125 1.03125 3C1.40625 1.875 2.53125 0.75 4.03125 0.75Z" stroke="white" stroke-width="1.5" stroke-linecap="round" stroke-linejoin="round"/>
</svg>
